<svg id="color_line" height="512" viewBox="0 0 74 74" width="512" xmlns="http://www.w3.org/2000/svg" data-name="color line"><g fill="#323c6b"><path d="m3.27 22.938a.5.5 0 0 1 -.5-.5v-7.927a.5.5 0 0 1 .5-.5h7.93a.5.5 0 0 1 0 1h-7.43v7.427a.5.5 0 0 1 -.5.5z"/><path d="m71.27 22.938a.5.5 0 0 1 -.5-.5v-7.427h-7.427a.5.5 0 0 1 0-1h7.927a.5.5 0 0 1 .5.5v7.927a.5.5 0 0 1 -.5.5z"/><path d="m11.2 59.989h-7.93a.5.5 0 0 1 -.5-.5v-7.927a.5.5 0 0 1 1 0v7.427h7.43a.5.5 0 0 1 0 1z"/><path d="m71.27 59.989h-7.927a.5.5 0 0 1 0-1h7.427v-7.427a.5.5 0 0 1 1 0v7.927a.5.5 0 0 1 -.5.5z"/><path d="m18.386 19.475h2.355v35.051h-2.355z"/><path d="m14.915 19.475h1.709v35.051h-1.709z"/><path d="m34.039 19.475h2.897v35.051h-2.897z"/><path d="m27.498 19.475h1.292v35.051h-1.292z"/><path d="m30.186 19.475h1.916v35.051h-1.916z"/><path d="m9.311 19.475h3.25v35.051h-3.25z"/><path d="m22.611 19.475h3.203v35.051h-3.203z"/><path d="m55.424 19.475h2.355v35.051h-2.355z" transform="matrix(-1 0 0 -1 113.202 74)"/><path d="m59.577 19.475h1.709v35.051h-1.709z" transform="matrix(-1 0 0 -1 120.863 74)"/><path d="m47.089 19.475h1.292v35.051h-1.292z" transform="matrix(-1 0 0 -1 95.471 74)"/><path d="m39.186 19.475h1.584v35.051h-1.584z" transform="matrix(-1 0 0 -1 79.956 74)"/><path d="m43.311 19.475h1.916v35.051h-1.916z" transform="matrix(-1 0 0 -1 88.539 74)"/><path d="m63.343 19.475h2.76v35.051h-2.76z" transform="matrix(-1 0 0 -1 129.445 74)"/><path d="m50.068 19.475h3.203v35.051h-3.203z" transform="matrix(-1 0 0 -1 103.34 74)"/></g><path d="m35.645 3.514h3.25v66.972h-3.25z" fill="#fe7058" transform="matrix(0 1 -1 0 74.27 -.27)"/></svg>